<svg xmlns="http://www.w3.org/2000/svg" xmlns:xlink="http://www.w3.org/1999/xlink" width="120" height="28" viewBox="0 0 120 28">
  <defs>
    <path id="eurojackpot-negative-a" d="M59.5216667,1.4014 C60.5393333,0.4524 59.8386667,0.2894 63.7476667,0.2894 C65.8,0.2894 69.123,0.3344 74.631,0.3344 C75.2856667,0.5424 75.173,0.5844 76.029,1.37006667 C76.8423333,0.588066667 76.7323333,0.542733333 77.3886667,0.3344 C78.4406667,0.336733333 79.2933333,0.3324 79.989,0.3284 C83.8133333,0.304733333 82.8843333,0.2814 84.1433333,1.36973333 C85.5016667,0.0654 83.454,0.3344 91.3633333,0.3344 L92.03,0.3344 C92.5713333,0.3344 93.0646667,0.5564 93.4196667,0.9114 C93.9113333,1.40306667 94,1.81273333 94.0026667,2.27673333 L94,4.4084 C94.0083333,4.77506667 93.9903333,5.0154 93.7713333,5.2334 C93.5263333,5.4794 93.2553333,5.47306667 92.7963333,5.46673333 C92.5723333,5.46373333 92.3036667,5.46073333 91.9713333,5.48673333 C91.8866667,13.9797333 92.1716667,13.9537333 91.7453333,14.3777333 C91.478,14.6454 91.3276667,14.6227333 89.8756667,14.5997333 C89.134,14.5880667 88.0533333,14.5764 86.444,14.6030667 C86.232,14.6034 86.0373333,14.5164 85.8993333,14.3777333 C85.557,14.0374 85.6953333,13.6494 85.684,12.3734 C85.065,12.9920667 83.8683333,14.1890667 83.844,14.2130667 C83.408,14.6430667 83.0996667,14.6244 80.148,14.6050667 C79.1493333,14.5987333 77.849,14.5920667 76.139,14.6030667 C75.717,14.6037333 75.368,14.2604 75.3686667,13.8327333 L75.3416667,10.5490667 L73.2933333,10.5757333 C73.1943333,14.7224 73.925,14.6644 71.0626667,14.6067333 C70.5133333,14.5954 69.8316667,14.5847333 68.987,14.6030667 C66.5023333,14.5547333 64.7016667,14.5757333 63.379,14.5964 C60.8173333,14.6370667 60.049,14.6777333 59.577,14.2134 L59.1736667,13.8497333 C59.0363333,13.9550667 58.604,14.5977333 57.867,14.6030667 L53.1543333,14.6030667 C52.413,14.5977333 51.984,13.9544 51.8093333,13.8497333 C50.919,14.6487333 51.5033333,14.6264 47.8886667,14.6040667 C46.8856667,14.5977333 45.5596667,14.5917333 43.789,14.6030667 C43.0843333,14.5980667 42.6736667,14.0214 42.4443333,13.8497333 C42.2566667,13.9944 41.899,14.5937333 41.1453333,14.6030667 C41.0453333,14.6027333 38.6073333,14.6030667 36.4616667,14.6030667 C35.5733333,14.5970667 35.0923333,13.6760667 34.5913333,13.2860667 C33.9606667,13.8257333 33.525,14.6590667 32.6586667,14.6657333 L27.788,14.6657333 C27.0536667,14.6604 26.6996667,14.0937333 26.1293333,13.5987333 C24.7056667,15.0220667 25.657,14.6670667 18.781,14.6580667 C18.5226667,14.6067333 18.242,14.4750667 18.0586667,14.2937333 L17.342,13.6154 C16.6006667,14.2450667 16.761,14.4390667 15.9053333,14.6657333 C15.0966667,14.6644 14.429,14.6677333 13.8746667,14.6710667 C10.4516667,14.6917333 11.3426667,14.7127333 10.045,13.6154 C10.0133333,13.6470667 9.413,14.2484 9.37,14.2914 C8.96133333,14.6950667 9.00433333,14.6824 5.15533333,14.6697333 C4.33133333,14.6670667 3.32833333,14.6644 2.10433333,14.6657333 C1.02166667,14.6657333 0.136,13.7800667 0.137,12.6987333 L0.137,2.3634 C0.136666667,1.8224 0.359,1.32873333 0.714666667,0.973733333 C1.41066667,0.2764 1.433,0.340733333 7.93866667,0.404733333 C11.3436667,0.438066667 16.525,0.471733333 24.5093333,0.395733333 C25.2473333,0.402733333 25.6006667,0.9704 26.1676667,1.46306667 C27.3656667,0.3474 26.7503333,0.3714 29.7243333,0.3954 C30.457,0.4014 31.4083333,0.4074 32.6583333,0.395733333 C33.4393333,0.403066667 33.779,1.01273333 35.0976667,2.28273333 C35.616,2.8104 35.488,2.56773333 35.488,7.13873333 C35.792,7.0424 35.8233333,7.07606667 36.288,7.1094 C36.5606667,7.12873333 36.983,7.1484 37.6983333,7.14173333 C37.7013333,0.0937333333 36.7883333,0.2124 43.9563333,0.330733333 C45.5136667,0.356733333 47.4526667,0.3824 49.866,0.3344 C49.8996667,0.3494 50.269,0.4154 50.5496667,0.6934 L51.2643333,1.3694 C51.2626667,1.37073333 51.2626667,1.37073333 51.2643333,1.3694 C51.2933333,1.3364 51.9636667,0.626066667 52.2393333,0.4784 C52.4336667,0.376733333 52.5903333,0.344733333 52.6236667,0.3344 L57.863,0.3344 C58.6806667,0.3404 59.0823333,1.07206667 59.5216667,1.4014 Z M37.8643333,7.87806667 C37.3056667,7.89673333 36.89,7.90306667 36.5763333,7.90306667 C36.257,7.90306667 36.043,7.8964 35.8913333,7.89006667 C35.368,7.86773333 35.5816667,7.84506667 34.7443333,8.0874 C34.726,2.85106667 34.7853333,3.22573333 34.6893333,3.00406667 C34.6013333,2.7804 34.6176667,2.8784 33.0766667,1.31273333 C32.874,1.0974 32.542,1.11973333 31.151,1.14206667 C30.3936667,1.15406667 29.3223333,1.1664 27.7873333,1.13973333 C27.452,1.12806667 27.1083333,1.58706667 26.6933333,1.9894 C26.393,2.29073333 25.903,2.2884 25.6026667,1.98873333 C25.6383333,2.0244 25.0583333,1.44373333 24.927,1.31206667 C24.721,1.0914 24.883,1.1174 19.234,1.1434 C15.9276667,1.15873333 10.6306667,1.17406667 2.10433333,1.13973333 C1.42633333,1.1404 0.880666667,1.69573333 0.880666667,2.3634 L0.880666667,8.94006667 C1.04,14.0724 -0.0806666667,13.9984 4.74466667,13.9247333 C5.73666667,13.9097333 6.97933333,13.8944 8.53633333,13.9244 C8.94466667,13.8454 9.022,13.5190667 9.52,13.0887333 C9.66966667,12.9390667 9.86933333,12.8637333 10.0646667,12.8640667 C10.7563333,12.8627333 10.9756667,13.8027333 11.606,13.9270667 L15.821,13.9270667 C16.4276667,13.8060667 16.6563333,12.8627333 17.361,12.8640667 C18.0576667,12.8627333 18.2556667,13.8014 18.878,13.9244 C20.5776667,13.8840667 21.809,13.9034 22.7006667,13.9227333 C24.1613333,13.9547333 24.7116667,13.9864 24.922,13.7547333 C25.4806667,13.2627333 25.6456667,12.8464 26.1483333,12.8474 C26.7716667,12.8460667 27.127,13.6910667 27.5653333,13.8670667 C27.7143333,13.9314 27.609,13.9264 29.0833333,13.9210667 C29.8136667,13.9187333 30.931,13.9160667 32.6586667,13.9217333 C33.077,13.9357333 33.4083333,13.3334 34.5913333,12.2347333 C36.333,13.9487333 35.9916667,13.8997333 37.008,13.8507333 C37.3283333,13.8357333 37.7833333,13.8204 38.4813333,13.8597333 L41.1373333,13.8597333 C41.4096667,13.8694 41.5773333,13.6744 41.7616667,13.4794 C41.942,13.2887333 42.1383333,13.0977333 42.4636667,13.0987333 C43.0326667,13.0970667 43.161,13.6414 43.5673333,13.8057333 C43.7226667,13.8724 43.6193333,13.8664 45.6336667,13.8600667 C46.6353333,13.8570667 48.1606667,13.8540667 50.5023333,13.8597333 C50.8496667,13.8717333 51.1336667,13.4450667 51.2833333,13.3240667 C51.5826667,13.0230667 52.074,13.0240667 52.373,13.3240667 L52.736,13.6864 C52.9136667,13.8777333 53.096,13.8694 55.186,13.8614 C55.8603333,13.8587333 56.7323333,13.8560667 57.867,13.8597333 C57.9846667,13.8640667 58.215,13.7634 58.2776667,13.6944 L58.6476667,13.3240667 C58.9486667,13.0230667 59.438,13.0234 59.7376667,13.3240667 L60.1013333,13.6867333 C60.3273333,13.9307333 59.795,13.8597333 72.55,13.8327333 L72.55,10.5757333 C72.55,10.1494 72.8976667,9.80506667 73.3203333,9.80606667 L75.3416667,9.80606667 C75.5533333,9.80573333 75.7473333,9.89306667 75.8853333,10.0314 C76.2826667,10.4264 76.0493333,10.7367333 76.1236667,13.8480667 L82.9006667,13.8597333 C83.337,13.8747333 83.6223333,13.2894 85.5,11.5050667 C85.7726667,11.2364 86.085,11.2647333 86.2626667,11.4507333 C86.514,11.7167333 86.382,11.9717333 86.444,13.8597333 L91.2276667,13.8327333 L91.2276667,5.48673333 C91.2276667,5.0604 91.5756667,4.7154 91.9983333,4.7154 L93.2536667,4.68873333 C93.2536667,4.8474 93.254,2.33473333 93.254,2.30106667 C93.254,1.63773333 92.7106667,1.07773333 91.7583333,1.07773333 C89.564,1.07773333 86.9553333,1.0714 85.6133333,1.0714 C85.0703333,1.25273333 84.7783333,2.12206667 84.1243333,2.1204 C83.457,2.12206667 83.2293333,1.22873333 82.6353333,1.0714 L77.488,1.07373333 C77.399,1.09706667 77.2966667,1.14873333 77.235,1.2154 C76.6733333,1.7094 76.514,2.1214 76.0096667,2.1204 C75.329,2.12206667 75.1426667,1.23473333 74.5326667,1.07373333 C66.6976667,1.07373333 62.834,1.07773333 61.1413333,1.07773333 C60.754,1.0644 60.429,1.5964 60.0473333,1.92773333 C59.7453333,2.22806667 59.2566667,2.22706667 58.9566667,1.9274 C57.9903333,0.991066667 58.667,1.02606667 55.5483333,1.0614 C54.8263333,1.06973333 53.901,1.07773333 52.7043333,1.07373333 C52.1793333,1.21006667 51.9333333,2.12206667 51.245,2.1204 C50.5633333,2.12206667 50.327,1.22206667 49.7566667,1.07173333 C47.298,1.1024 45.372,1.0854 43.8643333,1.06806667 C37.382,0.994733333 38.6273333,0.921066667 38.4596667,4.6374 C38.396,7.47673333 38.6823333,7.48306667 37.8643333,7.87806667 Z"/>
  </defs>
  <g fill="none" fill-rule="evenodd" transform="translate(0 4)">
    <g transform="translate(25 2.5)">
      <use fill="#FFF" xlink:href="#eurojackpot-negative-a"/>
      <path fill="#FFF" d="M90.3527,12.7065 C90.3517,12.9275 90.1727,13.1045 89.9527,13.1045 L87.7337,13.1045 C87.5137,13.1045 87.3337,12.9265 87.3337,12.7065 L87.3037,3.9415 L85.6617,3.9465 C85.5547,3.9465 85.4537,3.9045 85.3777,3.8295 C85.3017,3.7545 85.2597,3.6525 85.2597,3.5465 L85.2597,2.3035 C85.2597,2.0825 85.4397,1.9035 85.6607,1.9035 L91.9987,1.9035 C92.2187,1.9035 92.3987,2.0825 92.3987,2.3035 L92.3987,3.5425 C92.3987,3.6485 92.3557,3.7505 92.2807,3.8255 C92.2067,3.8995 92.1037,3.9425 91.9987,3.9425 L90.3977,3.9415 L90.3527,12.7065 Z M8.882,12.604 C8.882,12.879 8.656,13.105 8.381,13.105 L2.251,13.105 C1.976,13.105 1.75,12.879 1.75,12.604 L1.75,2.401 C1.75,2.125 1.976,1.9 2.251,1.9 L8.381,1.9 C8.656,1.9 8.882,2.125 8.882,2.401 L8.882,4.531 C8.882,4.753 8.701,4.933 8.479,4.932 L4.803,4.94 L4.795,5.981 L8.483,5.992 C8.704,5.992 8.882,6.171 8.882,6.391 L8.882,8.622 C8.882,8.843 8.703,9.022 8.482,9.022 L4.789,9.02 L4.776,10.065 L8.486,10.076 C8.705,10.077 8.882,10.254 8.882,10.473 L8.882,12.604 Z M16.3581,12.9946 C16.2841,13.0656 16.1851,13.1046 16.0821,13.1046 L11.3321,13.1046 C11.2271,13.1046 11.1261,13.0636 11.0511,12.9896 L10.2821,12.2296 C10.2061,12.1546 10.1631,12.0526 10.1631,11.9446 L10.1631,2.3036 C10.1631,2.0836 10.3431,1.9036 10.5631,1.9036 L12.7741,1.9036 C12.9961,1.9036 13.1761,2.0836 13.1761,2.3056 L13.1941,10.0666 L14.2101,10.0516 L14.2391,2.3026 C14.2401,2.0816 14.4191,1.9036 14.6401,1.9036 L16.8731,1.9036 C17.0921,1.9036 17.2731,2.0836 17.2731,2.3036 L17.2731,11.9486 C17.2731,12.0576 17.2281,12.1626 17.1491,12.2376 L16.3581,12.9946 Z M22.5151,5.773 L22.5151,5.135 C22.5151,5.025 22.4251,4.935 22.3151,4.935 L21.6591,4.935 C21.5491,4.935 21.4591,5.025 21.4591,5.135 L21.4591,5.773 C21.4591,5.883 21.5491,5.973 21.6591,5.973 L22.3151,5.973 C22.4251,5.973 22.5151,5.883 22.5151,5.773 Z M25.1691,6.999 L24.5611,6.999 L24.5611,8.034 L25.1741,8.041 C25.3931,8.044 25.5691,8.221 25.5691,8.441 L25.5691,12.706 C25.5691,12.926 25.3901,13.105 25.1691,13.105 L22.9191,13.105 C22.6981,13.105 22.5191,12.927 22.5191,12.707 L22.5081,9.016 L21.4731,9.022 L21.4681,12.706 C21.4671,12.926 21.2881,13.105 21.0671,13.105 L18.8291,13.105 C18.6081,13.105 18.4301,12.926 18.4301,12.706 L18.4301,2.303 C18.4301,2.083 18.6081,1.904 18.8291,1.904 L24.1491,1.904 C24.3701,1.904 25.5691,3.093 25.5691,3.312 L25.5691,6.598 C25.5691,6.82 25.3901,6.999 25.1691,6.999 Z M47.4323,5.773 L47.4323,5.135 C47.4323,5.025 47.3423,4.935 47.2323,4.935 L46.5763,4.935 C46.4663,4.935 46.3763,5.025 46.3763,5.135 L46.3763,5.773 C46.3763,5.883 46.4663,5.973 46.5763,5.973 L47.2323,5.973 C47.3423,5.973 47.4323,5.883 47.4323,5.773 Z M50.4863,3.312 L50.4863,12.706 C50.4863,12.926 50.3073,13.105 50.0873,13.105 L47.8363,13.105 C47.6153,13.105 47.4363,12.927 47.4363,12.707 L47.4253,9.016 L46.3903,9.022 L46.3853,12.706 C46.3843,12.926 46.2053,13.105 45.9843,13.105 L43.7463,13.105 C43.5253,13.105 43.3473,12.926 43.3473,12.706 L43.3083,3.293 C43.3083,3.185 43.3503,3.083 43.4263,3.007 C43.5013,2.932 44.5283,1.904 44.7483,1.904 L49.0663,1.904 C49.2873,1.904 50.4863,3.093 50.4863,3.312 Z M72.5949,5.773 L72.5949,5.135 C72.5949,5.025 72.5049,4.935 72.3949,4.935 L71.7389,4.935 C71.6289,4.935 71.5379,5.025 71.5379,5.135 L71.5379,5.773 C71.5379,5.883 71.6289,5.973 71.7389,5.973 L72.3949,5.973 C72.5049,5.973 72.5949,5.883 72.5949,5.773 Z M75.6499,3.312 L75.6499,7.607 C75.6499,7.714 75.6069,7.816 75.5319,7.891 C75.4549,7.966 74.5569,8.848 74.4819,8.923 C74.4069,8.998 74.3039,9.04 74.1989,9.039 L71.5529,9.022 L71.5479,12.706 C71.5469,12.926 71.3679,13.105 71.1479,13.105 L68.9089,13.105 C68.6889,13.105 68.5089,12.926 68.5089,12.706 L68.4729,2.305 C68.4729,2.199 68.5149,2.096 68.5889,2.021 C68.6639,1.946 68.7669,1.904 68.8729,1.904 L69.7049,1.904 L74.2299,1.904 C74.4499,1.904 75.6499,3.093 75.6499,3.312 Z M30.7961,9.8667 L30.7961,5.1357 C30.7961,5.0247 30.7071,4.9347 30.5961,4.9347 L29.9961,4.9347 C29.8851,4.9347 29.7961,5.0247 29.7961,5.1357 L29.7961,9.8667 C29.7961,9.9767 29.8851,10.0667 29.9961,10.0667 L30.5961,10.0667 C30.7071,10.0667 30.7961,9.9767 30.7961,9.8667 Z M33.8351,3.3257 L33.8351,11.8827 C33.8351,11.9927 32.6411,13.1027 32.4201,13.1027 L28.1401,13.1027 C27.9201,13.1027 26.7101,11.9047 26.7101,11.6837 L26.7101,3.3217 C26.7101,3.1007 27.7861,2.0967 27.8611,2.0217 C27.9361,1.9457 28.0381,1.9037 28.1451,1.9037 L32.4171,1.9037 C32.6371,1.9037 33.6421,2.9677 33.7171,3.0427 C33.7931,3.1177 33.8351,3.2197 33.8351,3.3257 Z M80.9836,9.8667 L80.9836,5.1357 C80.9836,5.0247 80.8946,4.9347 80.7836,4.9347 L80.1836,4.9347 C80.0736,4.9347 79.9836,5.0247 79.9836,5.1357 L79.9836,9.8667 C79.9836,9.9767 80.0736,10.0667 80.1836,10.0667 L80.7836,10.0667 C80.8946,10.0667 80.9836,9.9767 80.9836,9.8667 Z M84.0226,3.3257 L84.0226,11.8827 C84.0226,11.9927 82.8286,13.1027 82.6076,13.1027 L78.3276,13.1027 C78.1076,13.1027 76.8976,11.9047 76.8976,11.6837 L76.8976,3.3217 C76.8976,3.1007 77.9736,2.0967 78.0486,2.0217 C78.1246,1.9457 78.2256,1.9037 78.3326,1.9037 L82.6046,1.9037 C82.8256,1.9037 83.8306,2.9677 83.9056,3.0427 C83.9806,3.1177 84.0226,3.2197 84.0226,3.3257 Z M55.8195,9.8667 L55.8195,8.4047 C55.8195,8.1827 55.9995,8.0047 56.2195,8.0047 L58.4595,8.0047 C58.6795,8.0047 58.8585,8.1827 58.8585,8.4047 L58.8585,11.8827 C58.8585,11.9927 57.6645,13.1027 57.4435,13.1027 L53.1635,13.1027 C52.9435,13.1027 51.7335,11.9047 51.7335,11.6837 L51.7335,3.3217 C51.7335,3.1007 52.8095,2.0967 52.8845,2.0217 C52.9605,1.9457 53.0615,1.9037 53.1685,1.9037 L57.4405,1.9037 C57.6615,1.9037 58.6655,2.9677 58.7415,3.0427 C58.8165,3.1177 58.8585,3.2197 58.8585,3.3257 L58.8585,6.6037 C58.8585,6.8257 58.6795,7.0047 58.4595,7.0047 L56.2195,7.0047 C55.9995,7.0047 55.8195,6.8257 55.8195,6.6037 L55.8195,5.1357 C55.8195,5.0247 55.7295,4.9347 55.6195,4.9347 L55.0195,4.9347 C54.9095,4.9347 54.8195,5.0247 54.8195,5.1357 L54.8195,9.8667 C54.8195,9.9767 54.9095,10.0667 55.0195,10.0667 L55.6195,10.0667 C55.7295,10.0667 55.8195,9.9767 55.8195,9.8667 Z M38.2391,9.8667 C38.2391,9.9767 38.3291,10.0667 38.4391,10.0667 L39.0391,10.0667 C39.1501,10.0667 39.2391,9.9767 39.2391,9.8667 C39.2391,9.8667 39.2201,3.9647 39.2161,2.3047 C39.2161,2.1987 39.2581,2.0957 39.3331,2.0207 C39.4081,1.9457 39.5101,1.9037 39.6161,1.9037 L40.8901,1.9037 L41.9211,1.9037 C42.1421,1.9037 42.3211,2.0827 42.3221,2.3037 L42.3251,11.6837 C42.3251,11.9047 41.1151,13.1027 40.8951,13.1027 L36.6151,13.1027 C36.3941,13.1027 35.2001,11.9927 35.2001,11.8827 L35.2001,9.4047 C35.2001,9.1827 35.3791,9.0047 35.6001,9.0047 L37.8391,9.0047 C38.0601,9.0047 38.2391,9.1827 38.2391,9.4047 L38.2391,9.8667 Z M66.8234,6.9985 L66.2154,6.9985 L66.2154,8.0335 L66.8274,8.0405 C67.0474,8.0435 67.2224,8.2215 67.2224,8.4405 L67.2224,12.7055 C67.2224,12.9265 67.0444,13.1045 66.8234,13.1045 L64.5724,13.1045 C64.3514,13.1045 64.1734,12.9275 64.1724,12.7065 L64.1614,9.0165 L63.1264,9.0215 L63.1214,12.7055 C63.1204,12.9265 62.9414,13.1045 62.7204,13.1045 L60.4824,13.1045 C60.2614,13.1045 60.0834,12.9265 60.0834,12.7055 L60.0834,2.3035 C60.0834,2.0825 60.2614,1.9035 60.4824,1.9035 L62.7534,1.9035 C62.9734,1.9035 63.1534,2.0825 63.1534,2.3035 L63.1534,5.9735 L64.1534,5.9735 L64.1534,2.3035 C64.1534,2.0825 64.3324,1.9035 64.5524,1.9035 L66.8234,1.9035 C67.0444,1.9035 67.2224,2.0825 67.2224,2.3035 L67.2224,6.5985 C67.2224,6.8195 67.0444,6.9985 66.8234,6.9985 Z"/>
    </g>
    <g fill="#FEFEFE">
      <path d="M15.0656421,10.9266425 L10.9637606,15.0145854 L20.0678849,15.9119568 L15.0656421,10.9266425 Z M15.9661181,-0.00010031746 L10.9638179,4.98521397 L15.0656995,9.07321397 L15.9661181,-0.00010031746 Z M4.10185287,19.9998997 L5.93313599,9.99989968 L2.8668448e-05,15.9119568 L4.10185287,19.9998997 Z M2.8668448e-05,4.08789968 L5.93313599,9.99989968 L14.1358097,9.99989968 L2.8668448e-05,4.08789968 Z"/>
      <path fill-opacity=".65" d="M15.9660665,19.9999111 L20.0678907,15.9119683 L10.9637663,15.0145968 L15.9660665,19.9999111 Z M15.9660665,-8.88888889e-05 L15.0657052,9.0732254 L20.067948,4.08785397 L15.9660665,-8.88888889e-05 Z M4.10185861,19.9999111 L14.1358154,9.99991111 L5.93314173,9.99991111 L4.10185861,19.9999111 Z M3.44021376e-05,4.08791111 L14.1358154,9.99991111 L4.10185861,-8.88888889e-05 L3.44021376e-05,4.08791111 Z"/>
    </g>
  </g>
</svg>