<svg xmlns="http://www.w3.org/2000/svg" xmlns:xlink="http://www.w3.org/1999/xlink" width="83" height="28" viewBox="0 0 83 28">
  <defs>
    <polygon id="extra-negative-a" points="0 0 20.01 0 20.01 20 0 20"/>
  </defs>
  <g fill="none" fill-rule="evenodd" transform="translate(0 4)">
    <path fill="#FEFEFE" d="M66.1412791,7.2846 C66.1412791,8.47265714 65.8096211,9.11928571 63.9139506,9.08202857 C63.6515286,9.07694286 63.3685244,9.07608571 63.0635088,9.06528571 L63.0653384,5.64545714 C63.3367937,5.62385714 63.6800577,5.61254286 64.0726045,5.61374286 C65.8404371,5.61922857 66.1412791,6.15711429 66.1412791,7.27254286 L66.1412791,7.2846 Z M67.0973758,11.2762571 C68.4366429,10.659 69.2008685,9.29391429 69.2008685,7.48917143 L69.2008685,7.11528571 C69.1846887,3.4954 66.2813519,3.14002857 63.9951928,3.05054286 C62.9639714,3.0102 61.6416273,3.10494286 60.8764298,3.2218 C60.3379215,3.3046 60.0039194,3.73911429 60.0039194,4.33145714 L60.0039194,16.0025429 C60.0039194,16.6332857 60.3566169,16.9807714 61.0025525,16.9807714 L62.065276,16.9807714 C62.7084673,16.9807714 63.0635088,16.6332857 63.0635088,16.0025429 L63.0635088,11.7699714 C63.2326824,11.7718571 63.3918508,11.7718571 63.5198602,11.7718571 C63.7041845,11.7718571 63.9162375,11.7718571 64.1179423,11.7672286 C64.6354683,12.6961429 65.2285192,13.7265429 65.8028747,14.7228286 L66.7734361,16.4115143 C66.9495847,16.7071714 67.198514,16.9807714 67.8100317,16.9807714 L69.0677708,16.9807714 C69.733488,16.9807714 69.9089506,16.5155714 69.9089506,16.2386 C69.9089506,15.9750571 69.7880307,15.7815714 69.6054215,15.4867714 L67.0973758,11.2762571 Z M57.2664402,3.12945714 L49.2392417,3.12945714 C48.6310972,3.12945714 48.2787427,3.47242857 48.2787427,4.06791429 L48.2787427,5.22317143 C48.2787427,5.84374286 48.6198914,6.18597143 49.2392417,6.18597143 L51.7227604,6.18597143 L51.7227604,16.0212286 C51.7227604,16.6406 52.0692833,16.9807714 52.7009828,16.9807714 L53.802355,16.9807714 C54.4343976,16.9807714 54.7820639,16.6406 54.7820639,16.0212286 L54.7820639,6.18597143 L57.2664402,6.18597143 C57.8857334,6.18597143 58.2268248,5.84374286 58.2268248,5.22317143 L58.2268248,4.06791429 C58.2268248,3.47242857 57.8752136,3.12945714 57.2664402,3.12945714 Z M75.6850369,10.8805429 C76.0152656,9.75122857 76.3942053,8.47442857 76.7836648,7.25397143 C77.248249,8.75797143 77.814829,10.7167143 78.2413935,12.1928286 L78.364829,12.6191143 L75.6850369,10.8805429 Z M82.3094496,15.4706571 L82.2930982,15.4202571 C81.2371211,11.5830571 79.9225525,7.36345714 78.7784153,4.1354 C78.4756866,3.28465714 78.0092157,3.12945714 77.2032542,3.12945714 L76.3771679,3.12945714 C75.5693196,3.12945714 75.1043352,3.28465714 74.7989194,4.13677143 C73.6531242,7.37294286 72.3402136,11.5893429 71.2898966,15.4083143 L71.2733165,15.4715143 C71.2075681,15.6787714 71.1292989,15.9346 71.1292989,16.1786 C71.1292989,16.5659714 71.3816585,16.9807714 72.0861388,16.9807714 L73.0323446,16.9807714 C73.5355203,16.9807714 74.0445847,16.9160857 74.2520068,16.1345429 C74.4393041,15.3652857 74.6704527,14.4895143 74.905146,13.6479143 L79.6472666,16.7574571 L79.7476045,16.803 C79.9848706,16.9667143 80.2701616,16.9807714 80.5476772,16.9807714 L81.4903384,16.9807714 C82.1994496,16.9807714 82.4517521,16.5659714 82.4517521,16.1786 C82.4517521,15.9364857 82.3718248,15.6787714 82.3094496,15.4706571 Z M32.8916065,3.12945714 L28.3658269,3.12945714 C26.6169184,3.12945714 25.4119496,3.57985714 25.207329,5.77585714 C25.0841793,6.88814286 25.0536492,11.7064286 25.2456346,14.2012286 C25.4248134,16.5296286 26.5321315,16.9807714 28.3457022,16.9807714 L32.8700525,16.9807714 C33.6805878,16.9807714 33.8503903,16.4706571 33.8503903,16.0413429 L33.8503903,15.235 C33.8503903,14.8078 33.6805878,14.2960286 32.8700525,14.2960286 L28.5032698,14.2960286 C28.3209465,14.2960286 28.282012,14.2763143 28.2737219,14.2723714 C28.2670899,14.2639714 28.2549122,14.2314 28.2388467,14.1044857 C28.1399953,13.3149429 28.1115234,12.3668857 28.1070068,11.2028286 L32.1037687,11.2028286 C32.7233477,11.2028286 33.064382,10.8677429 33.064382,10.2615143 L33.064382,9.45517143 C33.064382,8.84877143 32.7233477,8.5154 32.1037687,8.5154 L28.1090078,8.5154 C28.1204995,7.58065714 28.1533165,6.66551429 28.2024278,6.0374 C28.2152344,5.85722857 28.2173498,5.83505714 28.5235088,5.83505714 L32.8916065,5.83505714 C33.509013,5.83505714 33.8503903,5.49357143 33.8503903,4.87362857 L33.8503903,4.08814286 C33.8503903,3.29408571 33.3301201,3.12945714 32.8916065,3.12945714 Z M43.049512,9.9038 C42.994855,9.82391429 42.9941689,9.65448571 43.0460244,9.57625714 C43.0776409,9.53002857 46.4338986,4.90454286 46.6797406,4.5078 C46.9096315,4.13677143 46.8613207,3.84351429 46.8119808,3.703 C46.7118716,3.40494286 46.4818093,3.2262 46.3197251,3.18654286 C45.9246627,3.08985714 45.0162479,3.075 44.6028332,3.10671429 C44.2514506,3.13368571 43.8546731,3.31425714 43.6698342,3.59334286 L41.1227396,6.98482857 L38.6050889,3.60357143 C38.4154475,3.31631429 38.0104943,3.10065714 37.6627136,3.10065714 C37.6627136,3.10065714 36.352776,3.04437143 35.9424485,3.18728571 C35.7668144,3.24842857 35.5557334,3.40242857 35.4513935,3.703 C35.3921627,3.87905714 35.3671783,4.16151429 35.5839766,4.50717143 C35.8449122,4.92871429 39.1904215,9.53728571 39.2154059,9.57162857 C39.2704631,9.65448571 39.2693196,9.82254286 39.2112895,9.90591429 L35.6372043,15.2744286 C35.4500213,15.577 35.314751,15.7948286 35.314751,16.0974 C35.314751,16.2839143 35.5609932,16.9834571 36.2984049,16.9834571 L37.5940494,16.9872286 C37.9317677,16.9872286 38.3240286,16.785 38.5292209,16.4819714 L41.1213675,12.4622 L43.8393508,16.4904286 C44.0592937,16.8135143 44.5306814,17.0006571 44.8493612,17.0006571 L45.9642833,16.9834571 C46.6421211,16.9834571 46.949881,16.5233429 46.949881,16.0974 C46.949881,15.7971143 46.81867,15.5852286 46.6155359,15.2570571 L43.049512,9.9038 Z"/>
    <mask id="extra-negative-b" fill="#fff">
      <use xlink:href="#extra-negative-a"/>
    </mask>
    <path fill="#FEFEFE" d="M15.0224553,10.9267314 L10.9323306,15.0146743 L20.0103607,15.9120457 L15.0224553,10.9267314 Z M15.9203503,-1.14285714e-05 L10.9323877,4.98530286 L15.0225125,9.07330286 L15.9203503,-1.14285714e-05 Z M4.09009044,19.9999886 L5.91612474,9.99998857 L2.28690229e-05,15.9120457 L4.09009044,19.9999886 Z M2.28690229e-05,4.08798857 L5.91612474,9.99998857 L14.0952879,9.99998857 L2.28690229e-05,4.08798857 Z" mask="url(#extra-negative-b)"/>
    <path fill="#FEFEFE" fill-opacity=".65" d="M15.9203274,20 L20.010395,15.9120571 L10.9323649,15.0146857 L15.9203274,20 Z M15.9203274,0 L15.0224896,9.07331429 L20.010395,4.08794286 L15.9203274,0 Z M4.09012474,20 L14.0953222,10 L5.91615904,10 L4.09012474,20 Z M0,4.088 L14.0953222,10 L4.09012474,0 L0,4.088 Z"/>
  </g>
</svg>