<svg xmlns:xlink="http://www.w3.org/1999/xlink" xmlns="http://www.w3.org/2000/svg" width="69" height="28" viewBox="0 0 69 28">
  <g fill="#C60C30" fill-rule="evenodd" transform="translate(0 4)">
    <path d="M11.800002,8.00677971 C11.7770806,7.03184257 11.1377123,6.24865971 10.2508719,6.26968829 C9.36429422,6.29038829 8.71021415,7.10386543 8.7332012,8.07873686 L8.77181944,13.4228197 C8.81969818,15.4657454 8.75809289,17.3869683 7.96701,18.5447226 C6.50766074,20.6791226 3.60695779,20.8859911 1.83800582,19.1818226 C2.04915829,19.065574 2.21978787,18.8742797 2.30352641,18.628114 C2.48170888,18.1041083 2.20152958,17.535154 1.67808163,17.3569369 C1.15437096,17.178654 0.585540002,17.4589911 0.407685915,17.9826026 C0.229437765,18.5064111 0.509420029,19.0757597 1.03280231,19.2538454 C1.24796109,19.3271169 1.47054141,19.3218597 1.67079145,19.2550283 C2.66744424,23.257094 7.25506824,24.0195111 9.85221077,21.6959197 C11.841116,19.9169683 12.0260632,17.639574 11.9246575,13.3189254 L11.800002,8.00677971 Z M52.0207053,7.938174 C51.7864344,7.85839686 51.5434285,7.87094829 51.3301743,7.95545686 C50.696914,6.822214 49.734282,6.40210257 48.8039633,6.27054257 C46.2759789,5.97246257 42.8916284,7.24363971 44.165308,15.2270711 L44.1665559,15.2255597 C44.2571905,16.0211626 44.86418,16.641374 45.5948398,16.641374 C46.38809,16.641374 46.8853984,15.9329083 46.9145591,15.0200054 C46.9354445,13.2856083 46.9909418,11.8488969 47.1365484,10.8144226 C47.2817608,9.77981686 47.5513004,9.09481114 48.1225614,8.54931686 C49.1771416,7.55091971 50.4945622,7.434934 51.2084086,8.01394257 C51.0006057,8.13058543 50.8329316,8.320434 50.7503753,8.563774 C50.5721928,9.087714 50.8521094,9.65679971 51.3755573,9.83508257 C51.8988083,10.0133654 52.4680333,9.73302829 52.6461501,9.20935114 C52.8242669,8.68527971 52.5441533,8.11632543 52.0207053,7.938174 Z M29.2378464,10.2040026 C30.1727626,9.36009971 31.2028451,8.56955686 32.3259923,7.85057686 C32.7708903,7.56320829 32.8736752,7.033354 32.5134353,6.66640543 C32.1546403,6.299194 31.5144838,6.24313971 30.8550839,6.40880543 C29.9966161,6.62461114 27.8989493,7.79899114 26.5965031,8.66576257 L26.6353184,5.50503686 C26.6353184,2.89230257 29.2011985,0.0918225714 31.4516307,1.85966829 C31.2241902,1.973354 31.0395714,2.172994 30.9513668,2.43276257 C30.773053,2.95670257 31.0531009,3.525854 31.5764832,3.70400543 C32.0998655,3.882354 32.6690248,3.60201686 32.8471416,3.078274 C33.0253241,2.554334 32.7451448,1.98537971 32.2215655,1.80716257 C32.0110698,1.73546829 31.793678,1.73901686 31.5969088,1.80164257 C29.078776,-1.90792886 23.4235021,0.467839714 23.4235021,5.69593686 L23.5404077,14.9855711 C23.5404077,15.8773797 24.2105787,16.6068083 25.0293117,16.6068083 C25.8959892,16.6068083 26.5184785,15.9266654 26.5184785,14.9855711 L26.5436985,11.8966711 C26.7726496,12.1597911 29.7094093,14.6832854 31.0035802,15.8660769 C31.9595788,16.7169454 32.7070519,16.8393054 33.2387096,16.4322054 C33.8423495,15.9618883 33.8016296,15.0708683 33.0489679,14.2317626 C31.8440524,12.8332311 30.5999933,11.533994 29.2378464,10.2040026 Z M37.4383122,8.62935686 C38.1045425,8.26904543 39.0291473,8.21502829 39.5430064,8.55785971 C40.6251054,9.27933686 39.6412596,9.84401971 39.1407331,10.1096369 C38.7030596,10.3422654 36.3836007,11.3308711 36.3836007,11.3308711 C36.0821419,10.318674 36.53433,9.11886257 37.4383122,8.62935686 Z M42.0997574,11.8749854 C41.3822988,12.695034 40.9284031,13.1603569 39.7978343,13.6070169 C38.3787452,14.1680197 37.0451023,13.6230511 36.6627948,12.8146997 C36.6627948,12.8146997 38.6495983,12.307714 41.2303215,10.6722826 C43.1972905,9.42555114 42.50341,8.05139971 41.2194191,7.11536543 C39.8049931,6.08424257 37.783709,5.95176257 36.0861482,6.75610543 C33.7726002,7.85274543 32.6466945,10.4423483 33.311677,12.8292883 C33.3900957,13.1106111 33.4916985,13.3894369 33.621017,13.6623483 C33.6352033,13.6917883 33.6505061,13.7195854 33.6646268,13.7487626 C34.9178807,16.2740969 37.9660291,17.3409683 40.5231742,16.1289997 C42.3323207,15.2715597 43.4618386,13.5650911 43.4395083,12.3083054 C43.4259788,11.5610683 42.639559,11.2579283 42.0997574,11.8749854 Z M17.9714337,13.2688511 C16.6731908,13.2688511 15.6213691,12.2162397 15.6213691,10.9181854 C15.6213691,9.61953971 16.6731908,8.56712543 17.9714337,8.56712543 C19.2687571,8.56712543 20.3205788,9.61953971 20.3205788,10.9181854 C20.3205788,12.2162397 19.2687571,13.2688511 17.9714337,13.2688511 Z M17.737951,6.23597686 C14.8755379,6.23597686 12.5552908,8.55753114 12.5552908,11.4216883 C12.5552908,14.2855169 14.8755379,16.6072026 17.737951,16.6072026 C20.6001013,16.6072026 22.9204141,14.2855169 22.9204141,11.4216883 C22.9204141,8.55753114 20.6001013,6.23597686 17.737951,6.23597686 Z" transform="translate(15.333)"/>
    <path fill-opacity=".6" d="M14.4077244,10.4909571 L10.4850172,14.4158743 L19.1915264,15.2774543 L14.4077244,10.4909571 Z M15.268885,0 L10.4850829,4.78649714 L14.4077901,8.71141429 L15.268885,0 Z M3.92274001,19.2023714 L5.67402479,9.60112 L-3.28386422e-05,15.2774543 L3.92274001,19.2023714 Z M-3.28386422e-05,3.92491714 L5.67402479,9.60112 L13.5185196,9.60118571 L-3.28386422e-05,3.92491714 Z"/>
    <path d="M14.7176358,18.6508577 C14.6979983,18.5383549 14.6857166,18.4233549 14.6857166,18.305332 C14.6854539,17.7702863 14.8939136,17.2669149 15.2722805,16.8882034 C15.650713,16.5096234 16.153801,16.3010463 16.6890052,16.3010463 C17.1077635,16.3011777 17.4965074,16.4308977 17.8182604,16.6515006 L19.1915724,15.2774806 L10.4849975,14.4159663 L14.7176358,18.6508577 Z M3.9227203,19.2023977 L13.5184999,9.601212 L5.67407077,9.601212 L3.9227203,19.2023977 Z M1.31354569e-05,3.92494343 L13.5184999,9.601212 L3.9227203,2.62857143e-05 L1.31354569e-05,3.92494343 Z M15.2688653,2.62857143e-05 L14.4077704,8.71144057 L19.1915724,3.92487771 L15.2688653,2.62857143e-05 Z"/>
  </g>
</svg>