<svg xmlns="http://www.w3.org/2000/svg" xmlns:xlink="http://www.w3.org/1999/xlink" width="88" height="28" viewBox="0 0 88 28">
  <defs>
    <polygon id="keno-full-color-white-a" points=".035 .001 62.645 .001 62.645 12.475 .035 12.475"/>
  </defs>
  <g fill="none" fill-rule="evenodd" transform="translate(0 4)">
    <g transform="translate(23.97 3.657)">
      <mask id="keno-full-color-white-b" fill="#fff">
        <use xlink:href="#keno-full-color-white-a"/>
      </mask>
      <path fill="#FFF" d="M47.2392484,0.31384 L46.1620647,0.31384 C45.5404673,0.31384 44.800969,0.545097143 44.2077457,1.73315429 C44.2077457,1.73315429 42.1061219,7.50898286 42.0537787,7.43052571 C42.053607,7.43035429 42.0534354,7.43024 42.0534354,7.43024 L38.6963749,2.42566857 C38.2446213,1.76326857 37.7423551,1.10304 36.9710504,0.70144 C36.5178667,0.465554286 35.972925,0.317897143 35.2885157,0.314011429 C35.2872572,0.314011429 35.2859987,0.31384 35.2848546,0.31384 L32.9669932,0.314011429 C32.463354,0.314011429 32.2806961,0.656068571 32.560947,1.07389714 L33.1495938,1.95155429 L29.2692154,11.24664 C29.2178447,11.3700114 29.198738,11.4869257 29.2065751,11.5928114 C29.2285421,11.8855543 29.4626279,12.0908686 29.8325201,12.0908686 L30.9170834,12.0908686 C31.6236884,12.0908686 32.4773694,11.7959543 33.0668172,10.1917829 L33.0669888,10.1913257 L35.1638645,4.95429714 L38.4871736,9.90881143 C38.9520845,10.5948114 39.4629316,11.2884114 40.2624959,11.7041829 C40.7153364,11.9397829 41.2598777,12.0868686 41.943486,12.0908686 L42.4895718,12.0908686 C42.9931538,12.0908686 43.5591472,11.7090971 43.7472968,11.2424114 L47.8127358,1.16229714 C48.0008854,0.695611429 47.7428876,0.31384 47.2392484,0.31384 M62.5571098,4.38269714 C62.4201593,3.58481143 62.0255542,2.86824 61.6316928,2.31978286 C61.0081505,1.49932571 60.1716884,1.38229714 59.236947,1.68178286 L58.5099767,1.91469714 C58.0232132,2.08606857 57.5723749,2.33218286 57.7938183,2.63818286 C57.7962209,2.64144 57.7962209,2.64401143 57.7981087,2.64715429 C58.0701791,3.06784 58.2935102,3.57155429 58.4429316,4.11372571 C58.8413122,5.20515429 58.8552704,6.64509714 57.9470152,8.24384 C56.8208062,10.2262971 54.4700515,11.3537829 52.9129118,10.5444114 C51.6767534,9.90172571 51.5308788,7.93806857 52.1704387,6.04115429 C53.0540955,3.42046857 54.521651,2.11841143 55.8183903,1.51269714 C56.7086257,1.09692571 57.4232968,1.07789714 57.653607,1.07772571 C58.215596,1.06258286 58.7771274,1.15595429 59.2226455,1.02035429 C59.7079789,0.872525714 59.7238821,0.59904 59.0083529,0.350068571 C57.0480845,-0.331817143 53.2150152,-0.165188571 50.2421483,2.24012571 C47.1228348,4.76395429 46.6054662,8.24921143 48.2401769,10.26064 C50.0125245,12.4412686 54.6625487,13.5136114 58.8895938,11.0972686 C62.4269668,9.07498286 62.8862715,6.30206857 62.5571098,4.38269714 M25.0520097,1.12544 C26.2087094,0.966582857 26.7976994,1.49349714 27.1546059,1.92646857 C27.4154068,2.24269714 27.6221483,2.48612571 27.8123573,2.64949714 C28.2243529,3.00355429 28.7223287,3.20904 29.238782,2.84898286 C29.2391252,2.84881143 29.2395828,2.84869714 29.2398689,2.84835429 C29.4102275,2.72926857 29.6568986,2.46675429 29.4201813,1.95435429 C29.2644673,1.61738286 28.8916004,1.27955429 28.787486,1.19601143 C28.5038601,0.968354286 28.021101,0.608811429 27.0559261,0.304697143 C25.0583595,-0.324617143 21.3335806,-0.109531429 18.4295322,2.24012571 C15.3101615,4.76395429 14.7926213,8.24921143 16.4273892,10.26064 C18.2182715,12.4642971 23.4982451,13.2011543 27.399332,11.1225257 C28.6704431,10.3962971 28.5985355,9.70681143 28.2717193,9.53115429 C27.9660691,9.36698286 27.5748392,9.48766857 26.8076532,9.77692571 C26.6408986,9.84481143 26.4747732,9.90881143 26.3104211,9.96566857 C26.3061879,9.96732571 26.3022407,9.96881143 26.2980075,9.97041143 L26.2981791,9.96966857 C23.3193056,10.9953257 20.7885817,10.1784114 20.4066191,7.10252571 L24.9274728,7.10252571 C26.7159525,7.10252571 27.1432792,5.79772571 27.2830328,5.44532571 C27.3958425,5.16104 27.3202737,4.90264 26.5461087,4.90264 L20.4934002,4.90264 C21.0890834,2.20726857 23.4848018,1.34069714 25.0520097,1.12544 M14.976881,11.3024686 C14.169079,10.96824 12.5169778,10.11144 11.447288,8.36989714 C10.509057,6.84269714 10.3178183,5.74132571 10.300771,5.14829714 L15.2845905,1.80281143 C16.5004409,0.983782857 17.3537787,0.193497143 16.1736246,0.149668571 L15.0399789,0.149668571 C14.0748612,0.149668571 13.5147028,0.352754286 12.5816774,1.03155429 L6.77872915,5.12161143 L8.35028471,1.16435429 C8.53597448,0.696697143 8.27586007,0.314011429 7.7722209,0.314011429 L5.35035952,0.314011429 C4.84672035,0.314011429 4.28261474,0.696697143 4.09698218,1.16435429 L0.0953848185,11.2406971 C-0.0902477448,11.7082971 0.169809461,12.0912114 0.673448625,12.09184 L3.09382266,12.09384 C3.59746183,12.0943543 4.16151023,11.7120686 4.3472,11.2444114 L5.57397668,8.15549714 C5.57397668,8.15549714 6.33973245,7.64515429 6.46632871,7.56635429 C6.58783366,8.16464 6.81385347,8.90326857 7.23425831,9.56532571 C8.13170165,10.9788114 9.4552132,12.09464 11.8779327,12.09464 L14.5220383,12.09464 C14.8524585,12.09464 15.0693826,11.9838971 15.2108524,11.85624 C15.4583243,11.6162971 15.2709756,11.4321257 14.976881,11.3024686" mask="url(#keno-full-color-white-b)"/>
    </g>
    <path fill="#FF7800" d="M15.0311692,10.9267314 L10.9386719,15.0146743 L20.0219679,15.9120457 L15.0311692,10.9267314 Z M15.929585,-1.14285714e-05 L10.9387292,4.98530286 L15.0312264,9.07330286 L15.929585,-1.14285714e-05 Z M4.09246293,19.9999886 L5.91955644,9.99998857 L2.28822882e-05,15.9120457 L4.09246293,19.9999886 Z M2.28822882e-05,4.08798857 L5.91955644,9.99998857 L14.103464,9.99998857 L2.28822882e-05,4.08798857 Z"/>
    <path fill="#D20000" d="M15.9295622,20 L20.0220022,15.9120571 L10.9387063,15.0146857 L15.9295622,20 Z M15.9295622,0 L15.0312035,9.07331429 L20.0220022,4.08794286 L15.9295622,0 Z M4.09244004,20 L14.1034983,10 L5.91959076,10 L4.09244004,20 Z M0,4.088 L14.1034983,10 L4.09244004,0 L0,4.088 Z"/>
  </g>
</svg>