<svg xmlns:xlink="http://www.w3.org/1999/xlink" xmlns="http://www.w3.org/2000/svg" width="125" height="28" viewBox="0 0 125 28">
  <g fill="#FFF" fill-rule="evenodd" transform="translate(0 4)">
    <path d="M65.8986896,11.3828031 C65.1421123,11.3810945 64.4261857,10.863266 64.0811806,10.0970374 C63.4697751,8.73708024 63.5783086,7.02213453 64.437039,5.92332596 C64.9187306,5.35141453 65.647747,4.86526024 66.8650985,4.86526024 C66.9288372,4.87064881 67.0835469,4.85803167 67.4213163,4.92492881 C67.8848532,5.01706024 68.0250916,5.17792881 68.0191716,5.56189739 L68.0237103,9.94425167 C68.0114756,10.5569717 66.7484085,11.3837888 65.8986896,11.3828031 M72.3298602,11.2554488 C71.2929375,11.3267488 71.0735682,11.140646 71.0775806,10.2018517 L71.0775806,5.21584596 C71.0758046,4.11887739 70.6512083,3.64540596 69.3853785,3.29751453 C64.0363859,1.82827453 59.5715797,4.84265453 60.8685224,10.0951974 C61.2058973,11.4596231 62.041145,12.660486 63.7171,13.1719402 C65.3234619,13.6598688 66.7031533,13.4294745 67.7361294,12.4545374 C67.9608924,12.2412288 68.1354012,11.9864545 68.389567,11.6837088 C68.8485651,12.7707545 69.4310942,13.193626 70.5019583,13.3020545 C71.6944457,13.421326 72.9909938,12.9198602 73.2179934,12.2159288 C73.4106568,11.625026 73.0249352,11.2084631 72.3298602,11.2554488 M59.8541615,11.2806831 C59.5828277,11.2988202 59.3685233,11.2996745 59.1984875,11.2744402 C58.7760618,11.194926 58.6444402,10.9184002 58.6444402,10.3699488 L58.6444402,0.457605958 C58.6711461,0.0166631006 58.3581749,-0.167731185 57.0670205,0.529825958 C57.0670205,0.529825958 55.5932668,1.35933739 55.5932668,1.93039453 L55.5932668,11.1686402 C55.5932668,12.1653288 56.3050494,12.9550831 57.3379597,13.2044688 C57.6056757,13.268606 57.8837847,13.3047488 58.1614989,13.3146717 C58.7389631,13.3562688 59.3404362,13.2767545 59.8071961,13.0779688 C60.1522012,12.939706 60.4280737,12.7508431 60.5894926,12.5204488 C60.6573096,12.431866 60.7116422,12.3370402 60.7432813,12.2394545 C60.9354186,11.649406 60.549697,11.2328431 59.8541615,11.2806831 M48.8993135,11.5517545 C47.4861412,11.5517545 46.3401587,10.051826 46.3401587,8.20131167 C46.3401587,6.34987739 47.4861412,4.8498831 48.8993135,4.8498831 C50.3130121,4.8498831 51.4589945,6.34987739 51.4589945,8.20131167 C51.4589945,10.051826 50.3130121,11.5517545 48.8993135,11.5517545 M48.8993135,2.93431167 C45.7649311,2.93431167 43.2237994,4.7758231 43.2237994,8.20131167 C43.2237994,11.6258802 45.7649311,13.4674574 48.8993135,13.4674574 C52.0337618,13.4674574 54.5748277,11.6258802 54.5748277,8.20131167 C54.5748277,4.7758231 52.0337618,2.93431167 48.8993135,2.93431167 M78.3422887,11.3828031 C77.5857114,11.3810945 76.8697848,10.863266 76.5247797,10.0970374 C75.9133084,8.73708024 76.0223024,7.02213453 76.8810986,5.92332596 C77.3627243,5.35141453 78.0912803,4.86526024 79.3086318,4.86526024 C79.3724363,4.87064881 79.5270802,4.85803167 79.8653759,4.92492881 C80.3289127,5.01706024 80.4690854,5.17792881 80.4627707,5.56189739 L80.4672436,9.94425167 C80.4550747,10.5569717 79.1920076,11.3837888 78.3422887,11.3828031 M77.9849832,17.8371945 C76.3524416,17.8371945 76.0187504,17.1296488 76.0599273,16.7239288 C76.1154439,16.183626 77.0470562,15.0983545 80.0480411,16.3931888 C80.0480411,16.3931888 79.6175248,17.8371945 77.9849832,17.8371945 M81.8293723,3.29751453 C76.479985,1.82827453 72.0155734,4.84265453 73.3125162,10.0951974 C73.6494306,11.4596231 74.4852045,12.660486 76.1611595,13.1719402 C77.767061,13.6598688 79.1472128,13.4294745 80.1801231,12.4545374 C80.2787242,12.3605002 80.3677874,12.257526 80.4582978,12.1473231 C80.4672436,12.6532574 80.4777023,13.9662288 80.3710106,14.8209745 C79.9770667,14.6456488 79.5587851,14.5010774 79.1141923,14.3927145 C78.3920168,14.2173888 77.672012,14.1640288 76.9764765,14.2317802 C76.0494029,14.3221374 75.3403171,14.5987288 74.871847,15.0541288 C74.3866034,15.523066 74.1726937,16.1238917 74.2369587,16.840506 C74.2803064,17.3528802 74.4435671,17.7955974 74.7222023,18.1606402 C74.9916943,18.513066 75.3380807,18.8030631 75.7491925,19.0235345 C76.1553053,19.2376974 76.6075283,19.3904174 77.0927718,19.4753202 C77.5770945,19.5575288 78.0659558,19.5874288 78.5412669,19.5286802 C80.5455193,19.2837631 81.4458871,18.6467288 82.4421591,17.0130717 C83.4876988,15.2971402 83.5180224,12.2846002 83.5184828,10.862346 L83.5211797,5.21584596 C83.5198642,4.11887739 83.0947416,3.64540596 81.8293723,3.29751453 M100.505624,11.2744402 C99.2755776,11.344886 98.563795,11.1587174 98.5682679,10.2216974 L98.5632688,5.6360231 C98.5632688,5.6360231 99.6979375,5.64233167 99.8702098,5.6360231 C100.416561,5.61703167 101.557939,5.48060881 101.59096,4.65471167 L101.59096,4.07465167 C101.59096,3.87218596 101.434934,3.70868881 101.243192,3.70868881 L98.5632688,3.70868881 L98.5632688,0.457605958 C98.5899746,0.0166631006 98.2770034,-0.167731185 96.9859149,0.529825958 C96.9859149,0.529825958 95.5120953,1.35933739 95.5120953,1.93039453 L95.5103193,9.95516024 C95.527882,10.940086 95.5514305,11.9114088 96.6359107,12.7056974 C97.6248813,13.4294745 99.6364351,13.4646974 100.720915,12.9054031 C101.141433,12.713846 101.450326,12.5177545 101.560636,12.2330802 C101.788622,11.6430974 101.33094,11.2274545 100.505624,11.2744402 M87.7536584,8.53652024 C87.7536584,8.53652024 87.0856839,5.93147453 88.8607004,5.14356024 C90.252166,4.52551739 91.1923294,5.06496596 91.4383387,5.57819453 C91.764926,6.26221453 91.7431535,8.19861739 87.7536584,8.53652024 M94.1318778,7.17117453 C95.1326884,5.64417167 93.8650826,3.51167739 91.6645489,3.07973739 C88.842151,2.52675167 86.1482173,3.61741167 85.1166884,5.72999453 C84.4840366,7.03113739 84.4211529,8.45707167 84.8041776,9.95154596 C85.255085,11.7045402 86.6781898,12.9243288 88.6775747,13.2812888 C90.2332219,13.5595888 91.7138166,13.3625774 93.0456216,12.8529631 C93.4377236,12.7030031 93.8429155,12.4789174 94.0500501,12.1761717 C94.2684985,11.8581145 94.2445553,11.4650774 94.0102544,11.194006 C93.7958843,10.9455402 93.3355048,10.9933802 92.9805015,11.0629717 C92.3220648,11.193086 91.7938683,11.319586 91.1245782,11.3783345 C89.737125,11.5029945 88.6711943,11.0711202 88.1783205,10.0094402 C92.6431924,9.3606431 93.6864299,7.85250024 94.1318778,7.17117453 M38.5248239,10.4060917 C38.0359626,10.9780688 37.2965533,11.4650774 36.0606524,11.4650774 C35.995927,11.4587031 35.8390467,11.4722402 35.4962781,11.4054088 C35.0259003,11.3132117 34.8834912,11.1514888 34.8898059,10.7683745 L34.8848068,6.38602024 C34.8975019,5.77336596 36.1791184,4.94661453 37.0414666,4.94746881 C37.8094235,4.94930881 38.5356773,5.46707167 38.8861419,6.23238024 C39.506559,7.59319167 39.3962495,9.3072831 38.5248239,10.4060917 M39.2556163,3.17377453 C37.6497806,2.68578024 36.269563,2.91532024 35.2366527,3.8912431 C35.1136481,4.00867453 34.9974185,4.15055167 34.8830308,4.2932831 L34.8852672,0.417783101 C34.8744139,-0.00147404221 34.7102322,-0.155048328 33.3585623,0.599417386 C33.3585623,0.599417386 31.9199997,1.35933739 31.9199997,1.93039453 L31.923157,11.1298031 C31.9245384,12.2267717 32.3216395,12.7003088 33.5874036,13.0481345 C38.9367909,14.5165202 43.4015313,11.5029945 42.1042596,6.25045167 C41.7668848,4.88602596 40.9316371,3.6851631 39.2556163,3.17377453 M3.81928823,12.2846002 C2.18674666,12.2846002 1.85259495,11.5780402 1.89416658,11.1723202 C1.94928845,10.6319517 2.88136123,9.54681167 5.88195147,10.8415802 C5.88195147,10.8415802 5.45182981,12.2846002 3.81928823,12.2846002 M16.1480391,0.569648815 C16.1480391,0.569648815 14.6615245,1.35933739 14.6615245,1.93039453 L14.6588276,8.88802596 C14.6588276,8.88802596 11.0292033,3.17016024 10.252761,2.15816024 C9.54275444,1.23283739 9.01633395,0.774743101 8.30862958,0.356405958 C7.94001025,0.168463101 7.3810297,-0.0646911851 6.29391843,0.0166631006 C4.85627675,0.181080244 4.46555605,0.871408815 4.46555605,0.871408815 C4.41398618,0.948228815 4.37188833,1.0268231 4.34524828,1.10909739 C4.15350572,1.69908024 4.53876685,2.1147231 5.2352232,2.06773739 C5.49346722,2.04874596 5.70106226,2.04697167 5.86794078,2.07049739 C6.26359482,2.13732881 6.42955245,2.35149167 6.45895517,2.8015031 L6.45895517,7.52182596 C6.45895517,7.52182596 6.44586536,8.65217739 6.32193981,9.31990024 C5.89458083,9.12019453 5.43650356,8.95847167 4.94849736,8.84018596 C4.22632185,8.66571453 3.50638279,8.61150024 2.81078155,8.67925167 C1.88331323,8.76960881 1.17422752,9.04613453 0.70569157,9.50153453 C0.220908483,9.97053739 0.00699876804,10.5714288 0.0712637716,11.2879774 C0.114611404,11.8003517 0.27787214,12.2430688 0.556046859,12.6081117 C0.82599934,12.9605374 1.17238574,13.2505345 1.58349758,13.471006 C1.98914986,13.6860888 2.44183333,13.8378888 2.92707687,13.9227917 C3.41093906,14.0050002 3.89887949,14.0231374 4.37511145,13.9770717 C5.21983118,13.8938774 5.95792494,13.6625631 6.56794914,13.2902917 C7.18073601,12.9144717 7.68452891,12.4210888 8.0666327,11.8201317 C8.13675194,11.7099945 8.20187205,11.595126 8.26429527,11.4795345 C8.26830773,11.4722402 8.27199129,11.4668517 8.27600374,11.4605431 C9.33377807,9.74191739 9.3691008,6.56305453 9.3360803,5.28267739 C9.35147232,5.3062031 13.5196202,11.5129174 13.8189754,11.9259317 C14.1188568,12.3388145 14.6099546,13.2966002 16.015102,13.2966002 C17.6534978,13.2966002 17.7217753,12.0686631 17.7240117,11.9141688 L17.7240117,11.9131831 L17.7240117,11.9081231 C17.7239459,11.607086 17.7208544,0.457605958 17.7208544,0.457605958 C17.7208544,0.0175173864 17.557199,-0.185736899 16.1480391,0.569648815 M24.0249421,11.3828031 C23.2683647,11.3810945 22.5525039,10.863266 22.207433,10.0970374 C21.5960275,8.73708024 21.704561,7.02213453 22.5638177,5.92332596 C23.044983,5.35141453 23.7739336,4.86526024 24.9914167,4.86526024 C25.0551554,4.87064881 25.2097993,4.85803167 25.5476345,4.92492881 C26.0111714,5.01706024 26.1513441,5.17792881 26.1454241,5.56189739 L26.1500285,9.94425167 C26.1377938,10.5569717 24.8747267,11.3837888 24.0249421,11.3828031 M30.4561126,11.2554488 C29.4191899,11.3267488 29.1998206,11.140646 29.2038988,10.2018517 L29.2038988,5.21584596 C29.2021228,4.11887739 28.7774608,3.64540596 27.5116309,3.29751453 C22.1627041,1.82827453 17.6978321,4.84265453 18.9952353,10.0951974 C19.3321497,11.4596231 20.1678578,12.660486 21.8434182,13.1719402 C23.4497801,13.6598688 24.8294715,13.4294745 25.8623818,12.4545374 C26.0871448,12.2412288 26.2617194,11.9864545 26.5158194,11.6837088 C26.9748833,12.7707545 27.5573466,13.193626 28.6282107,13.3020545 C29.8212244,13.421326 31.117312,12.9198602 31.3443116,12.2159288 C31.536975,11.625026 31.1512534,11.2084631 30.4561126,11.2554488" transform="translate(23 3)"/>
    <path d="M15.1296855,10.999796 L11.0104106,15.1151531 L20.1532091,16.0185274 L15.1296855,10.999796 Z M16.034,1.31428571e-05 L11.0104106,5.01867886 L15.1297513,9.13397029 L16.034,1.31428571e-05 Z M4.11925517,20.1337531 L5.95833934,10.0668503 L-1.97333685e-05,16.0184617 L4.11925517,20.1337531 Z M-1.97333685e-05,4.11530457 L5.95833934,10.0668503 L14.1959025,10.0668503 L-1.97333685e-05,4.11530457 Z"/>
    <path fill-opacity=".65" d="M16.0339342,20.1337269 L20.1532091,16.0185011 L11.0104106,15.1151269 L16.0339342,20.1337269 Z M16.0339342,-1.31428571e-05 L15.1297513,9.133944 L20.1532091,4.11527829 L16.0339342,-1.31428571e-05 Z M4.11925517,20.1337269 L14.1959025,10.0668897 L5.95833934,10.0668897 L4.11925517,20.1337269 Z M-1.97333685e-05,4.11527829 L14.1959025,10.0668897 L4.11925517,-1.31428571e-05 L-1.97333685e-05,4.11527829 Z"/>
  </g>
</svg>