<svg xmlns="http://www.w3.org/2000/svg" xmlns:xlink="http://www.w3.org/1999/xlink" width="130" height="28" viewBox="0 0 130 28">
  <defs>
    <polygon id="vikinglotto-negative-a" points="0 0 19.812 0 19.812 19.846 0 19.846"/>
  </defs>
  <g fill="none" fill-rule="evenodd" transform="translate(0 4)">
    <path fill="#FFF" d="M83.7652436.708218433L83.7652436 15.8948544 86.9953184 15.8948544 86.9953184.708218433 83.7652436.708218433zM77.4062861 12.4677668C76.9839345 12.9307346 76.3895801 13.1857023 75.7327283 13.1857023 75.0758764 13.1857023 74.4815819 12.9307346 74.0592303 12.4677668 73.6497968 12.0190571 73.4243273 11.4054811 73.4243273 10.7402046 73.4243273 10.074988 73.6499164 9.46141198 74.0595891 9.01252258 74.4820005 8.54961475 75.0762352 8.294647 75.7327283 8.294647 76.3892213 8.294647 76.983456 8.54961475 77.4059272 9.01252258 77.8155999 9.46141198 78.0411292 10.074988 78.0411292 10.7402046 78.0411292 11.4054811 77.8157195 12.0190571 77.4062861 12.4677668zM78.5345307 5.58615392L78.5345307 6.59374378C78.5345307 6.59374378 77.5489837 5.28218157 75.4291518 5.28218157 74.0026536 5.28218157 72.6801583 5.80535668 71.7053167 6.75537512 71.2076691 7.24020922 70.8187491 7.81837972 70.5493221 8.47365161 70.2648836 9.16534747 70.120631 9.92791429 70.120631 10.7402046 70.120631 11.5547115 70.2690103 12.3171585 70.561702 13.0062184 70.8407578 13.6632876 71.2449882 14.2413382 71.763269 14.7241954 72.7835035 15.674753 74.1934354 16.1982276 75.7334459 16.1982276 77.2666385 16.1982276 78.6765705 15.6675041 79.7035033 14.7038866 80.2213056 14.2178544 80.6256556 13.6389051 80.9053095 12.9830341 81.1979414 12.29667 81.3463207 11.542071 81.3463207 10.7402046 81.3463207 10.7209143 81.3459618 6.11262396 81.345902 5.58621382L78.5345307 5.58615392zM95.9147003 12.4680664C95.4923487 12.9309143 94.8979346 13.1857622 94.2410827 13.1857023 93.5842309 13.1855825 92.9899363 12.9305548 92.5677043 12.4675871 92.1583307 12.0187576 91.932921 11.4051217 91.9330406 10.7398452 91.9331602 10.0746286 92.1588689 9.46111244 92.5685416 9.01228295 92.9910727 8.54943502 93.5853074 8.2945871 94.2418602 8.29470691 94.8982934 8.29476682 95.4925281 8.54979447 95.9148798 9.01276221 96.3244927 9.46171152 96.550022 10.0752876 96.5499023 10.7405041 96.5497827 11.4058406 96.3241936 12.0193567 95.9147003 12.4680664zM98.2128146 6.77712166C97.1860014 5.81326452 95.7761891 5.2824212 94.2429965 5.28218157 92.702986 5.28194194 91.2929345 5.80517696 90.2726402 6.75555484 89.7542995 7.23835207 89.3498898 7.81634286 89.0707143 8.47341198 88.7779628 9.16241198 88.6294639 9.92479908 88.6293443 10.7393659 88.6292247 11.5539327 88.7775441 12.3163198 89.0700564 13.0054396 89.3489927 13.6625687 89.753223 14.2406793 90.271444 14.7236562 91.2914991 15.6743336 92.7013713 16.197988 94.2413818 16.1982276 95.7745743 16.1984673 97.1845661 15.6679235 98.2116185 14.7044258 98.7295405 14.2185733 99.1340101 13.6396839 99.413664 12.9838129 99.7064155 12.2975088 99.8549144 11.5429097 99.855034 10.7409834 99.8551536 9.93911705 99.706894 9.18451797 99.4143817 8.49809401 99.1348473 7.84216313 98.7305572 7.26315392 98.2128146 6.77712166zM125.331771 12.4680664C124.90936 12.9309143 124.315006 13.1857622 123.658094 13.1857023 123.001302 13.1855825 122.406948 12.9305548 121.984716 12.4675871 121.575342 12.0187576 121.349992 11.4051217 121.350052 10.7398452 121.350172 10.0746286 121.57588 9.46111244 121.985553 9.01228295 122.408084 8.54943502 123.002319 8.2945871 123.658872 8.29470691 124.315305 8.29476682 124.909539 8.54979447 125.331891 9.01276221 125.741504 9.46171152 125.967033 10.0752876 125.966914 10.7405041 125.966854 11.4058406 125.741205 12.0193567 125.331771 12.4680664zM128.831393 8.49809401C128.551859 7.84216313 128.147628 7.26315392 127.629826 6.77712166 126.603013 5.81326452 125.1932 5.2824212 123.660008 5.28218157 122.119997 5.28194194 120.709946 5.80517696 119.689651 6.75555484 119.171311 7.23835207 118.766901 7.81634286 118.487726 8.47341198 118.194974 9.16241198 118.046475 9.92479908 118.046356 10.7393659 118.046236 11.5539327 118.194555 12.3163198 118.487068 13.0054396 118.766004 13.6625687 119.170234 14.2406793 119.688455 14.7236562 120.70851 15.6743336 122.118383 16.197988 123.658393 16.1982276 125.191645 16.1984673 126.601577 15.6679235 127.62869 14.7044258 128.146612 14.2185733 128.551021 13.6396839 128.830735 12.9838129 129.123427 12.2975088 129.271926 11.5429097 129.272045 10.7409834 129.272165 9.93911705 129.123905 9.18451797 128.831393 8.49809401zM113.927441 12.657435C113.717939 12.3908452 113.616149 11.9927576 113.616269 11.4403475L113.616747 8.40619539 116.768296 8.40667465 116.768715 5.57752719 113.617166 5.57704793 113.617525 2.48778065 110.387211 2.48724147 110.386792 5.57656866 105.351705 5.57572995 105.352184 2.48646267 102.12187 2.48598341 102.121391 5.5753106 100.436111 5.57507097 100.435693 8.40415853 102.120973 8.40439816 102.120315 12.496882C102.120195 13.412094 102.432742 14.3152046 102.977697 14.97473 103.633532 15.7682092 104.59402 16.1877438 105.755457 16.1879235 106.860676 16.1881032 107.685105 15.8769419 108.182155 15.6158636 108.653189 15.3684442 108.92764 15.11767 108.990197 15.0574627L108.990556 12.4571631C108.736559 12.6167576 107.885576 13.0924857 106.769173 13.092306 106.25472 13.0922461 105.892593 12.9495456 105.66204 12.6561171 105.452539 12.3895871 105.350808 11.9914396 105.350868 11.4390894L105.351346 8.40493733 110.386314 8.40571613 110.385715 12.4982C110.385596 13.413412 110.698083 14.3165825 111.243098 14.9760479 111.898933 15.7695272 112.859481 16.1890618 114.020918 16.1892415 115.126077 16.1894212 115.950506 15.8782 116.447556 15.6171816 116.918589 15.3697622 117.1931 15.1189281 117.255598 15.0587207L117.255956 12.4582415C117.001601 12.6177161 116.148764 13.0938037 115.034514 13.093624 114.52012 13.0935641 114.157994 12.9508636 113.927441 12.657435zM80.7437729 16.33967C80.7025066 16.3206793 80.6414444 16.3182829 80.5938387 16.3686654 80.1555188 16.8325318 78.5164692 18.3461032 75.8302722 18.3461032 73.1441351 18.3461032 71.5051453 16.8325318 71.0668254 16.3686654 71.0381782 16.3383521 71.0047465 16.3270894 70.9735875 16.3270894 70.9529543 16.3270894 70.9332781 16.3320618 70.9168314 16.33967 70.8762229 16.3584212 70.8353753 16.4025733 70.8424922 16.4704488 70.971255 17.6924488 71.5471293 18.825306 72.4639588 19.6603613 73.3896995 20.5034442 74.5852261 20.96773 75.8302722 20.96773 77.075438 20.96773 78.2709646 20.5034442 79.1966455 19.6603613 80.113475 18.825306 80.6893492 17.6924488 80.818112 16.4704488 80.8252888 16.4025733 80.7843813 16.3584212 80.7437729 16.33967zM29.6071114 12.4713613L27.2551715 5.58621382 23.7529185 5.58621382 27.7361332 15.8948544 31.4467511 15.8948544 35.3775158 5.58621382 31.9806414 5.58621382 29.6071114 12.4713613zM48.2371716 5.58621382L45.1527847 9.84703871 45.1522465.708218433 42.0033287.708218433 42.0033287 15.8948544 45.1523063 15.8948544 45.151768 11.0700571 48.258343 15.8948544 52.1143498 15.8948544 48.3091185 10.447435 52.1143498 5.58621382 48.2371716 5.58621382zM38.2503082.577140092C37.719169.577140092 37.2331836.757402765 36.8819416 1.08467926 36.5122793 1.4290894 36.3168923 1.90337972 36.3168923 2.45626912 36.3168923 3.00915853 36.5122793 3.48344885 36.8819416 3.82785899 37.2331836 4.15513548 37.719169 4.33539816 38.2503082 4.33539816 38.7789953 4.33539816 39.2648611 4.15267926 39.6184954 3.82078986 39.9829546 3.47883594 40.1836643 2.99424147 40.1836643 2.45626912 40.1836643 1.91835668 39.9829546 1.43376221 39.6184954 1.09174839 39.2648611.759918894 38.7789953.577140092 38.2503082.577140092zM68.1406858 7.4932C67.946794 7.0075871 67.6988374 6.61590968 67.3827017 6.29582212 67.0612431 5.97022304 66.6735791 5.71723226 66.2304748 5.54373917 65.7864135 5.37018618 65.3046145 5.28218157 64.7985341 5.28218157 64.1069947 5.28218157 63.5215515 5.40529217 63.0087728 5.6587023 62.5031709 5.90833825 62.0857234 6.30852258 61.7679729 6.84805253L61.6772468 7.00219539 61.6772468 5.58621382 58.6094263 5.58621382 58.6094263 15.8948544 61.7584039 15.8948544 61.7584039 10.3210295C61.7584039 10.0120249 61.8100765 9.71056866 61.9120461 9.42480829 61.9945787 9.19302488 62.1271691 8.98041198 62.3061094 8.79278065 62.4662705 8.62503871 62.651311 8.49989124 62.8560875 8.42057327 63.0650505 8.33987742 63.2822667 8.30063779 63.5202357 8.30063779 64.0489228 8.30063779 64.4526747 8.46730138 64.7545766 8.81009401 65.0432612 9.13814931 65.1835667 9.61501567 65.1835667 10.268071L65.1835667 15.8948544 68.4137013 15.8948544 68.4137013 9.09154101C68.4137013 8.47604793 68.3243508 7.95323226 68.1406858 7.4932zM36.6536014 15.8948544L39.8836762 15.8948544 39.8836762 5.58621382 36.6536014 5.58621382 36.6536014 15.8948544zM53.2784184 5.58621382L53.2784184 15.8948544 56.508553 15.8948544 56.5084932 5.58621382 53.2784184 5.58621382zM54.8702809.577140092C54.3392015.577140092 53.8532161.757402765 53.5019142 1.08467926 53.1323117 1.4290894 52.9369248 1.90337972 52.9369248 2.45626912 52.9369248 3.00915853 53.1323117 3.48344885 53.5019142 3.82785899 53.8532161 4.15513548 54.3392015 4.33539816 54.8702809 4.33539816 55.398968 4.33539816 55.8848936 4.15267926 56.2385278 3.82078986 56.602987 3.47883594 56.8036967 2.99424147 56.8036967 2.45626912 56.8036967 1.91835668 56.602987 1.43376221 56.2385278 1.09174839 55.8848936.759918894 55.398968.577140092 54.8702809.577140092zM14.873541 10.8424433L10.8240011 14.8988627 19.8120406 15.7893327 14.873541 10.8424433zM15.7625606.0000239631336L10.8240609 4.94685346 14.8736008 9.00327281 15.7625606.0000239631336zM4.04956973 19.8456922L5.85751215 9.92279816.0000299031164 15.7892728 4.04956973 19.8456922zM.0000299031164 4.05644332L5.85751215 9.92279816 13.9555751 9.92285806.0000299031164 4.05644332z"/>
    <mask id="vikinglotto-negative-b" fill="#fff">
      <use xlink:href="#vikinglotto-negative-a"/>
    </mask>
    <path fill="#FFF" d="M15.7625188,19.8456982 L19.8119988,15.7893387 L10.8240191,14.8988687 L15.7625188,19.8456982 Z M15.7625188,-2.99539171e-05 L14.8736187,9.0032788 L19.8120586,4.0563894 L15.7625188,-2.99539171e-05 Z M4.04952787,19.8456982 L13.955593,9.92286406 L5.85747028,9.92292396 L4.04952787,19.8456982 Z M-1.19612466e-05,4.05644931 L13.955593,9.92286406 L4.04952787,-2.99539171e-05 L-1.19612466e-05,4.05644931 Z" mask="url(#vikinglotto-negative-b)" opacity=".65"/>
  </g>
</svg>