<svg xmlns:xlink="http://www.w3.org/1999/xlink" height="24" viewBox="0 0 24 24" fill="none" xmlns="http://www.w3.org/2000/svg" aria-hidden="false" role="img" aria-label="Aldersgrense 18 år" width="24" ><path fill-rule="evenodd" clip-rule="evenodd" d="M12 1.05C5.962 1.05 1.05 5.963 1.05 12c0 6.038 4.912 10.95 10.95 10.95 6.038 0 10.95-4.912 10.95-10.95 0-6.037-4.912-10.95-10.95-10.95z" fill="#222222"></path><path fill-rule="evenodd" clip-rule="evenodd" d="M12.656 8.083c1.307 0 2.157.73 2.157 1.846 0 .62-.274 1.089-.777 1.377.677.351 1.014.982 1.014 1.71 0 1.323-.959 2.161-2.394 2.161s-2.386-.838-2.386-2.16c0-.73.33-1.36 1.006-1.711-.503-.288-.777-.756-.777-1.377 0-1.116.85-1.846 2.157-1.846zm-4.157.126v5.537h1.198v1.306H5.849v-1.306h1.234v-3.664l-.841.548-.732-1.07 1.984-1.351h1.005zm4.157 3.71c-.54 0-.931.377-.931.998 0 .685.402 1.045.931 1.045.531 0 .932-.36.932-1.044 0-.621-.383-1-.931-1zm5.894-2.45v1.576h1.6v1.17h-1.6v1.576h-1.188v-1.575h-1.6v-1.171h1.6V9.47h1.189zm-5.894-.305c-.511 0-.813.324-.813.81 0 .558.32.855.813.855.503 0 .814-.297.814-.855 0-.486-.302-.81-.814-.81z" fill="#FFFFFF"></path></svg>