<svg xmlns:xlink="http://www.w3.org/1999/xlink" height="24" viewBox="0 0 24 24" fill="none" xmlns="http://www.w3.org/2000/svg" aria-hidden="true" width="24" ><path fill-rule="evenodd" clip-rule="evenodd" d="M11.983 1.5a10.426 10.426 0 017.152 2.823 1 1 0 01-1.366 1.461A8.426 8.426 0 0011.983 3.5C7.298 3.5 3.5 7.305 3.5 12s3.798 8.5 8.483 8.5c1.437 0 2.855-.34 4.091-.965a7.778 7.778 0 001.75-1.197 1 1 0 011.352 1.475 9.777 9.777 0 01-2.2 1.508 11.133 11.133 0 01-4.993 1.179C6.193 22.5 1.5 17.799 1.5 12S6.193 1.5 11.983 1.5zm9.128 5.422a1 1 0 011.302.573c.542 1.418.824 2.94.824 4.501 0 1.562-.282 3.084-.824 4.501a1 1 0 01-1.302.573l-10.479-4.144c-.843-.333-.843-1.526 0-1.86l10.479-4.144zm-.251 2.25l-7.14 2.824 7.14 2.824c.248-.907.377-1.855.377-2.824 0-.968-.129-1.917-.377-2.824z" fill="#423E49"></path></svg>