<svg xmlns:xlink="http://www.w3.org/1999/xlink" height="28" viewBox="0 0 24 24" fill="none" xmlns="http://www.w3.org/2000/svg" aria-hidden="true" class="h-7" width="28" ><path d="M21.008 16c.537 0 .992.447.992.999v1.002a.992.992 0 01-.992.999H2.992C2.455 19 2 18.553 2 18.001v-1.002c0-.556.444-.999.992-.999h18.016zm0-6c.537 0 .992.447.992.999v1.002a.992.992 0 01-.992.999H2.992C2.455 13 2 12.553 2 12.001v-1.002c0-.556.444-.999.992-.999h18.016zm0-6c.537 0 .992.447.992.999v1.002a.992.992 0 01-.992.999H2.992C2.455 7 2 6.553 2 6.001V4.999C2 4.443 2.444 4 2.992 4h18.016z" fill="#FFFFFF"></path></svg>