<svg xmlns:xlink="http://www.w3.org/1999/xlink" height="24" viewBox="0 0 24 24" fill="none" xmlns="http://www.w3.org/2000/svg" aria-hidden="true" width="24" ><path fill-rule="evenodd" clip-rule="evenodd" d="M23 8.604c0 .295-.019.592-.055.891-.349 2.845-2.272 5.76-5.246 8.665a39.063 39.063 0 01-3.528 3.042c-.421.323-.813.61-1.165.858-.213.151-.368.257-.455.314a1 1 0 01-1.043.036c-.089-.05-.246-.142-.461-.275a30.523 30.523 0 01-1.171-.759A32.449 32.449 0 016.328 18.6C3.014 15.595 1 12.396 1 9.066 1 2.183 8.935.506 12.006 5.14 15.08.582 23 2.046 23 8.604zm-10.046 11.01a37.106 37.106 0 003.347-2.884c2.677-2.616 4.379-5.194 4.659-7.478.026-.22.04-.436.04-.648 0-5.055-6.908-5.618-8.025-.701-.236 1.037-1.714 1.037-1.95 0C9.887 2.895 3 3.617 3 9.066c0 2.633 1.736 5.39 4.672 8.052a30.489 30.489 0 004.29 3.231c.303-.216.636-.461.992-.734z" fill="#423E49"></path></svg>