<svg xmlns:xlink="http://www.w3.org/1999/xlink" height="24" viewBox="0 0 24 24" fill="none" xmlns="http://www.w3.org/2000/svg" aria-hidden="true" class="h-6" width="24" ><path fill-rule="evenodd" clip-rule="evenodd" d="M11.293.293a1 1 0 011.414 0l1.825 1.823A.995.995 0 0115 2h5a1 1 0 011 1v5c0 .17-.042.329-.116.468l2.823 2.825a1 1 0 01-1.414 1.414L22 12.415V21a1 1 0 01-.883.993L21 22h-6a1 1 0 01-1-1v-7h-4v7a1 1 0 01-1 1H3a1 1 0 01-1-1v-8.586l-.293.293a1 1 0 01-1.32.083l-.094-.083a1 1 0 010-1.414l11-11zM12 2.414l-8 8V20h4v-7a1 1 0 011-1h6a1 1 0 011 1v7h4v-9.585l-8-8zm7 4.171V4h-2.585L19 6.585z" fill="#FFFFFF"></path></svg>