<svg xmlns="http://www.w3.org/2000/svg" xmlns:xlink="http://www.w3.org/1999/xlink" width="87" height="28" viewBox="0 0 87 28">
  <defs>
    <polygon id="lotto-negative-a" points="0 0 20.068 0 20.068 20 0 20"/>
  </defs>
  <g fill="none" fill-rule="evenodd" transform="translate(0 4)">
    <path fill="#FFF" d="M58.7268889,3.27766667 L50.5086667,3.27766667 C49.5775556,3.27766667 48.8228889,4.03233333 48.8228889,4.96344444 C48.8228889,5.89455556 49.5775556,6.64922222 50.5086667,6.64922222 L52.9531111,6.64922222 L52.9531111,14.9938889 C52.9531111,15.9714444 53.7455556,16.7641111 54.7231111,16.7641111 C55.7006667,16.7641111 56.4933333,15.9714444 56.4933333,14.9938889 L56.4933333,6.64922222 L58.7268889,6.64922222 C59.658,6.64922222 60.4126667,5.89455556 60.4126667,4.96344444 C60.4126667,4.03233333 59.658,3.27766667 58.7268889,3.27766667 Z M33.5242222,13.3923333 L28.6355556,13.3923333 L28.6355556,5.04766667 C28.6355556,4.07011111 27.8428889,3.27766667 26.8655556,3.27766667 C25.8877778,3.27766667 25.0953333,4.07011111 25.0953333,5.04766667 L25.0953333,14.9938889 C25.0953333,15.9714444 25.8877778,16.7641111 26.8655556,16.7641111 L33.5242222,16.7641111 C34.4553333,16.7641111 35.21,16.0092222 35.21,15.0781111 C35.21,14.1472222 34.4553333,13.3923333 33.5242222,13.3923333 Z M42.1217778,13.3925556 C40.2626667,13.3925556 38.7502222,11.8801111 38.7502222,10.021 C38.7502222,8.16166667 40.2626667,6.64922222 42.1217778,6.64922222 C43.9808889,6.64922222 45.4933333,8.16166667 45.4933333,10.021 C45.4933333,11.8801111 43.9808889,13.3925556 42.1217778,13.3925556 Z M42.1217778,3.109 C38.3046667,3.109 35.21,6.20366667 35.21,10.0207778 C35.21,13.8381111 38.3046667,16.9325556 42.1217778,16.9325556 C45.9391111,16.9325556 49.0335556,13.8381111 49.0335556,10.0207778 C49.0335556,6.20366667 45.9391111,3.109 42.1217778,3.109 Z M79.5471111,13.3925556 C77.688,13.3925556 76.1755556,11.8801111 76.1755556,10.021 C76.1755556,8.16166667 77.688,6.64922222 79.5471111,6.64922222 C81.4062222,6.64922222 82.9186667,8.16166667 82.9186667,10.021 C82.9186667,11.8801111 81.4062222,13.3925556 79.5471111,13.3925556 Z M79.5471111,3.109 C75.73,3.109 72.6353333,6.20366667 72.6353333,10.0207778 C72.6353333,13.8381111 75.73,16.9325556 79.5471111,16.9325556 C83.3644444,16.9325556 86.4588889,13.8381111 86.4588889,10.0207778 C86.4588889,6.20366667 83.3644444,3.109 79.5471111,3.109 Z M71.1595556,3.27766667 L62.9413333,3.27766667 C62.0102222,3.27766667 61.2555556,4.03233333 61.2555556,4.96344444 C61.2555556,5.89455556 62.0102222,6.64922222 62.9413333,6.64922222 L65.1751111,6.64922222 L65.1751111,14.9938889 C65.1751111,15.9714444 65.9675556,16.7641111 66.9451111,16.7641111 C67.9226667,16.7641111 68.7151111,15.9714444 68.7151111,14.9938889 L68.7151111,6.64922222 L71.1595556,6.64922222 C72.0906667,6.64922222 72.8453333,5.89455556 72.8453333,4.96344444 C72.8453333,4.03233333 72.0906667,3.27766667 71.1595556,3.27766667 Z"/>
    <mask id="lotto-negative-b" fill="#fff">
      <use xlink:href="#lotto-negative-a"/>
    </mask>
    <path fill="#FEFEFE" d="M15.0656421,10.9267314 L10.9637606,15.0146743 L20.0678849,15.9120457 L15.0656421,10.9267314 Z M15.9661181,-1.14285714e-05 L10.9638179,4.98530286 L15.0656995,9.07330286 L15.9661181,-1.14285714e-05 Z M4.10185287,19.9999886 L5.93313599,9.99998857 L2.8668448e-05,15.9120457 L4.10185287,19.9999886 Z M2.8668448e-05,4.08798857 L5.93313599,9.99998857 L14.1358097,9.99998857 L2.8668448e-05,4.08798857 Z" mask="url(#lotto-negative-b)"/>
    <path fill="#FEFEFE" fill-opacity=".65" d="M15.9660665,19.9999111 L20.0678907,15.9119683 L10.9637663,15.0145968 L15.9660665,19.9999111 Z M15.9660665,-8.88888889e-05 L15.0657052,9.0732254 L20.067948,4.08785397 L15.9660665,-8.88888889e-05 Z M4.10185861,19.9999111 L14.1358154,9.99991111 L5.93314173,9.99991111 L4.10185861,19.9999111 Z M3.44021376e-05,4.08791111 L14.1358154,9.99991111 L4.10185861,-8.88888889e-05 L3.44021376e-05,4.08791111 Z"/>
  </g>
</svg>