<svg xmlns:xlink="http://www.w3.org/1999/xlink" height="24" viewBox="0 0 24 24" fill="none" xmlns="http://www.w3.org/2000/svg" aria-hidden="true" width="24" ><path fill-rule="evenodd" clip-rule="evenodd" d="M12 1c6.075 0 11 4.925 11 11s-4.925 11-11 11S1 18.075 1 12 5.925 1 12 1zm0 2a9 9 0 100 18 9 9 0 000-18zm-.004 12.62c.816 0 1.488.656 1.488 1.472s-.672 1.488-1.488 1.488a1.482 1.482 0 01-1.472-1.488c0-.816.656-1.472 1.472-1.472zm-.016-9.6c2.16 0 3.616 1.136 3.616 3.344 0 1.552-.912 2.288-1.824 2.96-.384.288-.672.48-.672 1.2v.976h-2.208v-.96c0-1.056.16-1.872 1.12-2.496.832-.528 1.312-.976 1.312-1.856 0-.816-.56-1.392-1.312-1.392-.8 0-1.392.512-1.584 1.504L8.54 8.724c.256-1.536 1.376-2.704 3.44-2.704z" fill="#423E49"></path></svg>