<svg xmlns:xlink="http://www.w3.org/1999/xlink" height="24" viewBox="0 0 24 24" fill="none" xmlns="http://www.w3.org/2000/svg" aria-hidden="true" width="24" ><path fill-rule="evenodd" clip-rule="evenodd" d="M7.156 21.58c-1.406.785-2.677-.13-2.361-1.714l1.08-5.423-4.072-3.754c-1.187-1.093-.705-2.584.901-2.774l5.512-.65 2.325-5.023c.676-1.46 2.24-1.465 2.918 0l2.325 5.022 5.512.651c1.602.19 2.091 1.678.902 2.774l-4.074 3.754 1.081 5.423c.315 1.58-.95 2.502-2.36 1.715L12 18.878l-4.844 2.703zm4.401-4.537a.91.91 0 01.886 0l4.89 2.728-1.092-5.473a.909.909 0 01.276-.846l4.107-3.785-5.558-.657a.91.91 0 01-.719-.52L12 3.417 9.653 8.489a.91.91 0 01-.719.521l-5.558.657 4.107 3.785a.909.909 0 01.276.846l-1.091 5.473 4.89-2.728z" fill="#423E49"></path></svg>