<svg xmlns:xlink="http://www.w3.org/1999/xlink" height="24" viewBox="0 0 24 24" fill="none" xmlns="http://www.w3.org/2000/svg" aria-hidden="true" width="24" ><path fill-rule="evenodd" clip-rule="evenodd" d="M10 3a1 1 0 011 1v4a1 1 0 01-1 1H7.5v2.25h9V9H14a1 1 0 01-1-1V4a1 1 0 011-1h7a1 1 0 011 1v4a1 1 0 01-1 1h-3v6h3a1 1 0 011 1v4a1 1 0 01-1 1h-7a1 1 0 01-1-1v-4a1 1 0 011-1h2.5v-2.25h-9V15H10a1 1 0 011 1v4a1 1 0 01-1 1H3a1 1 0 01-1-1v-4a1 1 0 011-1h3V9H3a1 1 0 01-1-1V4a1 1 0 011-1h7zM8.5 17h-4a.5.5 0 00-.5.5v1a.5.5 0 00.5.5h4a.5.5 0 00.5-.5v-1a.5.5 0 00-.5-.5zm11 0h-4a.5.5 0 00-.5.5v1a.5.5 0 00.5.5h4a.5.5 0 00.5-.5v-1a.5.5 0 00-.5-.5zm0-12h-4a.5.5 0 00-.5.5v1a.5.5 0 00.5.5h4a.5.5 0 00.5-.5v-1a.5.5 0 00-.5-.5zm-11 0h-4a.5.5 0 00-.5.5v1a.5.5 0 00.5.5h4a.5.5 0 00.5-.5v-1a.5.5 0 00-.5-.5z" fill="#423E49"></path></svg>